<svg xmlns="http://www.w3.org/2000/svg" xmlns:xlink="http://www.w3.org/1999/xlink" width="222.474" height="61.982" viewBox="0 0 222.474 61.982"><defs><clipPath id="clip-path"><rect id="Rectangle_263" data-name="Rectangle 263" width="222.474" height="61.982" transform="translate(0 0)" fill="none"></rect></clipPath><clipPath id="clip-path-2"><rect id="Rectangle_265" data-name="Rectangle 265" width="104.494" height="1.162" transform="translate(117.772 47.971)" fill="none"></rect></clipPath><linearGradient id="linear-gradient" x1="-1.127" y1="12.058" x2="-1.117" y2="12.058" gradientUnits="objectBoundingBox"><stop offset="0" stop-color="#c8d100"></stop><stop offset="0.006" stop-color="#c8d100"></stop><stop offset="1" stop-color="#adc300"></stop></linearGradient></defs><g id="Groupe_431" data-name="Groupe 431" transform="translate(0 0)"><g id="Groupe_426" data-name="Groupe 426"><g id="Groupe_425" data-name="Groupe 425" clip-path="url(#clip-path)"><path id="Trac&#xE9;_321" data-name="Trac&#xE9; 321" d="M51.036,60.92H38.972V55.713a20.008,20.008,0,0,1-15.146,6.27C10.706,61.983,0,50.4,0,36.126,0,21.753,10.516,9.983,25.561,9.983c14.96,0,25.475,11.77,25.475,26.143ZM25.561,21.948c-7.039,0-12.73,6.077-12.73,14.274,0,7.911,5.691,13.989,12.73,13.989S38.3,43.943,38.3,36.222c0-7.906-5.69-14.274-12.736-14.274" fill="#c8d100"></path><path id="Trac&#xE9;_322" data-name="Trac&#xE9; 322" d="M104.965,35.838c0,14.373-10.515,26.145-25.468,26.145-15.054,0-25.56-11.772-25.56-26.145,0-14.282,10.7-25.855,23.825-25.855A20.01,20.01,0,0,1,92.9,16.255V0h12.06Zm-12.737-.1c0-7.718-5.689-13.99-12.731-13.99s-12.735,6.08-12.735,13.99c0,8.2,5.7,14.278,12.735,14.278s12.731-6.366,12.731-14.278" fill="#adc300"></path><path id="Trac&#xE9;_323" data-name="Trac&#xE9; 323" d="M122.937,39.016h-2.621v3.891h-2.544V34.1a4.983,4.983,0,1,1,5.165,4.911m-.194-7.395a2.492,2.492,0,0,0-2.427,2.544v2.519h2.427a2.533,2.533,0,0,0,0-5.063" fill="#9b9c9e"></path><path id="Trac&#xE9;_324" data-name="Trac&#xE9; 324" d="M150.527,35.935c0,3.892-2.748,6.971-6.524,6.971-3.8,0-6.553-3.079-6.553-6.971A6.63,6.63,0,0,1,144,28.983c3.776,0,6.524,3.08,6.524,6.952m-2.558,0c0-2.485-1.767-4.547-3.966-4.547a4.3,4.3,0,0,0-3.989,4.547A4.306,4.306,0,0,0,144,40.5c2.2,0,3.966-2.058,3.966-4.564" fill="#9b9c9e"></path><path id="Trac&#xE9;_325" data-name="Trac&#xE9; 325" d="M177.07,42.907h-2.545v-8.92a2.226,2.226,0,0,0-2.311-2.288,2.186,2.186,0,0,0-2.273,2.288v8.92h-2.562v-8.92a2.3,2.3,0,0,0-4.6,0v8.92h-2.524V34.025a4.7,4.7,0,0,1,4.836-4.813,4.458,4.458,0,0,1,3.563,1.731,4.456,4.456,0,0,1,3.562-1.731,4.707,4.707,0,0,1,4.856,4.813Z" fill="#9b9c9e"></path><path id="Trac&#xE9;_326" data-name="Trac&#xE9; 326" d="M203.6,42.907h-2.541v-8.92a2.226,2.226,0,0,0-2.308-2.288,2.186,2.186,0,0,0-2.277,2.288v8.92h-2.562v-8.92a2.3,2.3,0,0,0-4.6,0v8.92h-2.523V34.025a4.7,4.7,0,0,1,4.838-4.813,4.466,4.466,0,0,1,3.565,1.731,4.444,4.444,0,0,1,3.564-1.731,4.706,4.706,0,0,1,4.849,4.813Z" fill="#9b9c9e"></path><path id="Trac&#xE9;_327" data-name="Trac&#xE9; 327" d="M215.859,35.029h5.421V37.4h-5.421V38.69c0,1.233.488,1.714,1.7,1.714h4.7v2.5h-4.716a3.892,3.892,0,0,1-4.222-4.256V33.8a3.892,3.892,0,0,1,4.222-4.257h4.716v2.5h-4.7c-1.209,0-1.7.465-1.7,1.695Z" fill="#9b9c9e"></path></g></g><g id="Groupe_428" data-name="Groupe 428"><g id="Groupe_427" data-name="Groupe 427" clip-path="url(#clip-path-2)"><rect id="Rectangle_264" data-name="Rectangle 264" width="104.494" height="1.162" transform="translate(117.772 47.971)" fill="url(#linear-gradient)"></rect></g></g><g id="Groupe_430" data-name="Groupe 430"><g id="Groupe_429" data-name="Groupe 429" clip-path="url(#clip-path)"><path id="Trac&#xE9;_328" data-name="Trac&#xE9; 328" d="M119.386,60.194a2.515,2.515,0,0,1-1.917-.658l.6-.6a1.777,1.777,0,0,0,1.313.476c.557,0,1-.2,1-.629,0-.3-.17-.5-.611-.539l-.728-.062c-.853-.073-1.35-.459-1.35-1.259,0-.89.764-1.394,1.718-1.394a2.5,2.5,0,0,1,1.691.513l-.577.584a1.725,1.725,0,0,0-1.123-.333c-.549,0-.826.245-.826.587,0,.268.144.472.628.518l.721.064c.853.071,1.355.478,1.355,1.286,0,.954-.808,1.448-1.9,1.448" fill="#9b9c9e"></path><path id="Trac&#xE9;_329" data-name="Trac&#xE9; 329" d="M125.894,59.654a1.854,1.854,0,0,1-1.367.541,1.834,1.834,0,0,1-1.358-.541,3.257,3.257,0,0,1,0-3.586,1.822,1.822,0,0,1,1.358-.54,1.842,1.842,0,0,1,1.367.54,3.247,3.247,0,0,1,0,3.586M125.2,56.6a.94.94,0,0,0-.676-.26.908.908,0,0,0-.664.26,2.649,2.649,0,0,0,0,2.5.914.914,0,0,0,.664.268.946.946,0,0,0,.676-.268,2.649,2.649,0,0,0,0-2.5" fill="#9b9c9e"></path><path id="Trac&#xE9;_330" data-name="Trac&#xE9; 330" d="M129.347,60.138a1.166,1.166,0,0,1-1.251-1.257V53.738h.918v5.089c0,.349.125.532.493.532h.4v.779Z" fill="#9b9c9e"></path><path id="Trac&#xE9;_331" data-name="Trac&#xE9; 331" d="M134.119,60.138V59.68a1.632,1.632,0,0,1-1.216.514,1.574,1.574,0,0,1-1.121-.416,1.661,1.661,0,0,1-.458-1.283V55.581h.916V58.36a.884.884,0,0,0,.916,1.014.908.908,0,0,0,.945-1.014V55.581h.918v4.557Z" fill="#9b9c9e"></path><path id="Trac&#xE9;_332" data-name="Trac&#xE9; 332" d="M138.282,60.138a1.186,1.186,0,0,1-1.251-1.266V56.365h-.52v-.7h.52V54.278h.917v1.383h.881v.7h-.881v2.462a.466.466,0,0,0,.5.532h.378v.779Z" fill="#9b9c9e"></path><path id="Trac&#xE9;_333" data-name="Trac&#xE9; 333" d="M140.906,54.691a.593.593,0,1,1,.591-.593.6.6,0,0,1-.591.593m-.461.89h.918v4.557h-.918Z" fill="#9b9c9e"></path><path id="Trac&#xE9;_334" data-name="Trac&#xE9; 334" d="M146.317,59.654a1.985,1.985,0,0,1-2.724,0,3.252,3.252,0,0,1,0-3.586,1.988,1.988,0,0,1,2.724,0,3.247,3.247,0,0,1,0,3.586m-.693-3.049a.933.933,0,0,0-.671-.26.913.913,0,0,0-.668.26,2.642,2.642,0,0,0,0,2.5.919.919,0,0,0,.668.268.939.939,0,0,0,.671-.268,2.634,2.634,0,0,0,0-2.5" fill="#9b9c9e"></path><path id="Trac&#xE9;_335" data-name="Trac&#xE9; 335" d="M151.323,60.138V57.359a.885.885,0,0,0-.917-1.014.907.907,0,0,0-.943,1.014v2.779h-.918V55.581h.9v.459a1.631,1.631,0,0,1,1.213-.513,1.578,1.578,0,0,1,1.124.415,1.67,1.67,0,0,1,.46,1.283v2.913Z" fill="#9b9c9e"></path><path id="Trac&#xE9;_336" data-name="Trac&#xE9; 336" d="M155.577,60.194a2.5,2.5,0,0,1-1.914-.658l.6-.6a1.768,1.768,0,0,0,1.313.476c.557,0,1-.2,1-.629,0-.3-.172-.5-.611-.539l-.728-.062c-.855-.073-1.35-.459-1.35-1.259,0-.89.765-1.394,1.719-1.394a2.494,2.494,0,0,1,1.688.513l-.574.584a1.727,1.727,0,0,0-1.123-.333c-.547,0-.827.245-.827.587,0,.268.143.472.627.518l.719.064c.856.071,1.359.478,1.359,1.286,0,.954-.809,1.448-1.9,1.448" fill="#9b9c9e"></path><path id="Trac&#xE9;_337" data-name="Trac&#xE9; 337" d="M162.1,54.691a.593.593,0,1,1,.593-.593.6.6,0,0,1-.593.593m-.458.89h.916v4.557h-.916Z" fill="#9b9c9e"></path><path id="Trac&#xE9;_338" data-name="Trac&#xE9; 338" d="M167.245,60.138V57.359a.886.886,0,0,0-.918-1.014.908.908,0,0,0-.945,1.014v2.779h-.915V55.581h.9v.459a1.632,1.632,0,0,1,1.213-.513,1.577,1.577,0,0,1,1.125.415,1.67,1.67,0,0,1,.46,1.283v2.913Z" fill="#9b9c9e"></path><path id="Trac&#xE9;_339" data-name="Trac&#xE9; 339" d="M171.084,56.364v3.774h-.922V56.364h-.519v-.7h.519v-.7a1.189,1.189,0,0,1,1.252-1.267h.577v.783h-.4a.462.462,0,0,0-.5.53v.655h.907v.7Z" fill="#9b9c9e"></path><path id="Trac&#xE9;_340" data-name="Trac&#xE9; 340" d="M176.315,59.654a1.862,1.862,0,0,1-1.37.541,1.827,1.827,0,0,1-1.355-.541,3.237,3.237,0,0,1,0-3.586,1.815,1.815,0,0,1,1.355-.54,1.85,1.85,0,0,1,1.37.54,3.262,3.262,0,0,1,0,3.586m-.693-3.049a.939.939,0,0,0-.677-.26.914.914,0,0,0-.663.26,2.642,2.642,0,0,0,0,2.5.92.92,0,0,0,.663.268.945.945,0,0,0,.677-.268,2.642,2.642,0,0,0,0-2.5" fill="#9b9c9e"></path><path id="Trac&#xE9;_341" data-name="Trac&#xE9; 341" d="M181.048,56.652a.842.842,0,0,0-.684-.307.936.936,0,0,0-.9,1.026v2.767h-.919V55.581h.9v.495a1.506,1.506,0,0,1,1.213-.549,1.4,1.4,0,0,1,1.084.433Z" fill="#9b9c9e"></path><path id="Trac&#xE9;_342" data-name="Trac&#xE9; 342" d="M188.494,60.138V57.359a.885.885,0,0,0-.917-1.014.9.9,0,0,0-.945.969v2.824h-.915V57.359a.886.886,0,0,0-.92-1.014.906.906,0,0,0-.94,1.014v2.779h-.916V55.581h.9v.459a1.652,1.652,0,0,1,1.215-.513,1.451,1.451,0,0,1,1.295.665,1.727,1.727,0,0,1,1.426-.665,1.65,1.65,0,0,1,1.153.415,1.7,1.7,0,0,1,.488,1.283v2.913Z" fill="#9b9c9e"></path><path id="Trac&#xE9;_343" data-name="Trac&#xE9; 343" d="M193.725,60.139v-.414a1.5,1.5,0,0,1-1.213.469,1.609,1.609,0,0,1-1.224-.415,1.4,1.4,0,0,1-.356-.978c0-.767.531-1.314,1.574-1.314h1.2v-.323c0-.576-.291-.854-1-.854a1.071,1.071,0,0,0-1,.441l-.6-.568a1.866,1.866,0,0,1,1.634-.655c1.254,0,1.881.531,1.881,1.565v3.046Zm-.015-2.014h-1.07c-.541,0-.82.242-.82.657s.261.647.835.647a1.08,1.08,0,0,0,.856-.261.916.916,0,0,0,.2-.673Z" fill="#9b9c9e"></path><path id="Trac&#xE9;_344" data-name="Trac&#xE9; 344" d="M197.843,60.138a1.185,1.185,0,0,1-1.251-1.266V56.365h-.52v-.7h.52V54.278h.918v1.383h.88v.7h-.88v2.462a.466.466,0,0,0,.5.532h.378v.779Z" fill="#9b9c9e"></path><path id="Trac&#xE9;_345" data-name="Trac&#xE9; 345" d="M200.469,54.691a.593.593,0,1,1,.592-.593.6.6,0,0,1-.592.593m-.46.89h.915v4.557h-.915Z" fill="#9b9c9e"></path><path id="Trac&#xE9;_346" data-name="Trac&#xE9; 346" d="M205.43,61.982v-2.31a1.42,1.42,0,0,1-1.195.522,1.566,1.566,0,0,1-1.108-.4,2.763,2.763,0,0,1-.511-1.933,2.739,2.739,0,0,1,.511-1.924,1.585,1.585,0,0,1,1.114-.4,1.393,1.393,0,0,1,1.207.539v-.486h.9v6.4Zm-.945-5.637c-.826,0-.952.7-.952,1.511s.126,1.519.952,1.519.945-.709.945-1.519-.117-1.511-.945-1.511" fill="#9b9c9e"></path><path id="Trac&#xE9;_347" data-name="Trac&#xE9; 347" d="M211,60.138V59.68a1.631,1.631,0,0,1-1.215.514,1.572,1.572,0,0,1-1.121-.416,1.666,1.666,0,0,1-.46-1.283V55.581h.918V58.36a.884.884,0,0,0,.915,1.014.905.905,0,0,0,.942-1.014V55.581h.918v4.557Z" fill="#9b9c9e"></path><path id="Trac&#xE9;_348" data-name="Trac&#xE9; 348" d="M214.481,58.125a1.123,1.123,0,0,0,1.161,1.279,1.354,1.354,0,0,0,1.1-.469l.586.547a2.133,2.133,0,0,1-1.707.713c-1.143,0-2.05-.6-2.05-2.338,0-1.474.764-2.329,1.932-2.329a1.936,1.936,0,0,1,1.932,2.193v.4Zm1.925-1.257a.945.945,0,0,0-.9-.576.957.957,0,0,0-.909.576,1.527,1.527,0,0,0-.116.62h2.05a1.43,1.43,0,0,0-.125-.62" fill="#9b9c9e"></path><path id="Trac&#xE9;_349" data-name="Trac&#xE9; 349" d="M220.578,60.194a2.5,2.5,0,0,1-1.913-.658l.6-.6a1.768,1.768,0,0,0,1.313.476c.556,0,1-.2,1-.629,0-.3-.17-.5-.613-.539l-.724-.062c-.856-.073-1.35-.459-1.35-1.259,0-.89.764-1.394,1.718-1.394a2.489,2.489,0,0,1,1.688.513l-.574.584a1.735,1.735,0,0,0-1.127-.333c-.543,0-.826.245-.826.587,0,.268.146.472.631.518l.719.064c.853.071,1.358.478,1.358,1.286,0,.954-.812,1.448-1.9,1.448" fill="#9b9c9e"></path></g></g></g></svg>