<svg xmlns="http://www.w3.org/2000/svg" xmlns:xlink="http://www.w3.org/1999/xlink" width="500" zoomAndPan="magnify" viewBox="0 0 375 374.999991" height="500" preserveAspectRatio="xMidYMid meet" version="1.0"><defs><clipPath id="92e85a7b9e"><path d="M 2.101562 2.101562 L 372.601562 2.101562 L 372.601562 372.601562 L 2.101562 372.601562 Z M 2.101562 2.101562 " clip-rule="nonzero"/></clipPath></defs><g clip-path="url(#92e85a7b9e)"><path fill="#adc300" d="M 318.585938 56.402344 C 283.570312 21.382812 237.015625 2.101562 187.492188 2.101562 C 137.972656 2.101562 91.417969 21.382812 56.402344 56.402344 C 21.382812 91.417969 2.101562 137.972656 2.101562 187.492188 C 2.101562 237.015625 21.382812 283.570312 56.402344 318.585938 C 91.417969 353.601562 137.972656 372.886719 187.492188 372.886719 C 237.015625 372.886719 283.570312 353.601562 318.585938 318.585938 C 353.601562 283.570312 372.886719 237.015625 372.886719 187.492188 C 372.886719 137.972656 353.601562 91.417969 318.585938 56.402344 Z M 64.8125 64.8125 C 97.582031 32.042969 141.152344 13.996094 187.492188 13.996094 C 233.835938 13.996094 277.40625 32.042969 310.175781 64.8125 C 342.941406 97.582031 360.988281 141.152344 360.988281 187.492188 C 360.988281 226.019531 348.507812 262.621094 325.476562 292.699219 C 307.144531 267.070312 277.875 251.925781 246.085938 251.925781 L 128.902344 251.925781 C 97.113281 251.925781 67.84375 267.070312 49.511719 292.699219 C 26.480469 262.617188 13.996094 226.019531 13.996094 187.492188 C 13.996094 141.152344 32.042969 97.582031 64.8125 64.8125 Z M 187.492188 242.152344 C 235.128906 242.152344 273.878906 203.402344 273.878906 155.769531 C 273.878906 108.136719 235.128906 69.382812 187.492188 69.382812 C 139.859375 69.382812 101.109375 108.136719 101.109375 155.769531 C 101.109375 203.402344 139.859375 242.152344 187.492188 242.152344 Z M 187.492188 242.152344 " fill-opacity="1" fill-rule="nonzero"/></g></svg>